<?xml version="1.0" encoding="UTF-8"?>
<!DOCTYPE svg PUBLIC "-//W3C//DTD SVG 1.1//EN" "http://www.w3.org/Graphics/SVG/1.1/DTD/svg11.dtd">
<svg version="1.1" xmlns="http://www.w3.org/2000/svg" xmlns:xlink="http://www.w3.org/1999/xlink" x="0" y="0" width="169" height="169" viewBox="0, 0, 260, 260">
  <g id="レイヤー_1">
    <path d="M0,-1 L261,-1 L261,260 L0,260 L0,-1 z" fill="#FFFFFF"/>
    <path d="M131.365,51.559 C134.779,51.674 139.724,50.945 145.229,47.275 C134.897,48.381 129.281,43.389 127.128,40.839 L125.649,37.104 C132.493,35.614 137.619,29.524 137.619,22.236 C137.619,13.831 130.803,7.017 122.4,7.017 C113.995,7.017 107.179,13.831 107.179,22.236 C107.179,29.274 111.957,35.195 118.449,36.934 L117.269,40.106 C115.703,42.23 110.043,48.502 98.591,47.275 C104.405,51.153 109.596,51.748 113.016,51.531 L106.198,69.858 L112.827,69.858 L112.827,87.532 L120.822,69.858 L123.978,69.858 L131.97,87.532 L131.97,69.858 L138.6,69.858 z" fill="#9D5F98"/>
    <path d="M130.052,208.494 C126.642,208.215 121.298,208.714 115.281,212.724 C123.907,211.8 129.244,215.128 132.024,217.737 L133.226,223.35 C127.218,225.384 122.891,231.067 122.891,237.763 C122.891,246.169 129.703,252.983 138.11,252.983 C146.516,252.983 153.331,246.169 153.331,237.763 C153.331,231.142 149.101,225.511 143.198,223.417 L144.133,218.801 C146.49,216.172 152.057,211.668 161.923,212.724 C155.313,208.32 149.517,208.15 146.201,208.596 L151.734,181.303 L147.684,181.303 L147.684,172.467 L143.686,181.303 L140.964,181.303 L137.989,193.086 L135.074,181.303 L132.533,181.303 L128.536,172.467 L128.536,181.303 L124.242,181.303 z" fill="#007AB5"/>
    <path d="M170.736,202.242 C167.722,203.848 163.805,206.953 160.873,212.884 C169.265,206.761 176.625,208.275 179.763,209.406 L182.912,211.903 C177.731,216.615 176.339,224.45 179.983,230.763 C184.182,238.043 193.493,240.536 200.77,236.333 C208.052,232.13 210.543,222.823 206.343,215.544 C202.824,209.448 195.725,206.711 189.234,208.449 L188.67,205.111 C188.966,202.488 190.728,194.229 201.261,189.562 C194.285,189.114 189.491,191.193 186.64,193.093 L183.381,173.81 L177.644,177.124 L168.806,161.819 L170.716,181.122 L167.983,182.7 L152.22,171.391 L161.059,186.698 L155.317,190.013 z" fill="#E5703E"/>
    <path d="M89.452,57.674 C92.542,56.21 96.923,53.105 100.128,46.625 C93.12,51.737 86.833,51.524 83.121,50.657 L79.275,46.395 C83.459,41.628 84.367,34.544 81.018,28.746 C76.817,21.466 67.508,18.972 60.229,23.174 C52.949,27.378 50.453,36.686 54.658,43.966 C57.97,49.698 64.445,52.461 70.605,51.322 L72.103,55.788 C71.376,59.244 68.806,65.928 59.735,69.944 C67.662,70.455 72.767,67.704 75.414,65.66 L84.27,92.061 L87.777,90.036 L92.195,97.69 L91.238,88.039 L93.595,86.678 L90.283,74.984 L98.699,83.731 L100.898,82.463 L108.775,88.116 L104.359,80.462 L108.076,78.316 z" fill="#D8127D"/>
    <path d="M58.738,83.817 C60.179,80.72 61.441,75.883 60.215,69.381 C57.195,79.324 50.404,82.544 47.217,83.53 L43.201,83.429 C44.503,76.548 40.902,69.452 34.193,66.603 C26.455,63.32 17.517,66.929 14.237,74.666 C10.95,82.404 14.559,91.338 22.298,94.622 C28.778,97.374 36.092,95.287 40.23,89.992 L42.691,92.319 C44.033,94.591 47.596,102.249 41.989,112.315 C47.833,108.475 50.407,103.929 51.545,100.695 L65.751,114.135 L68.341,108.034 L84.611,114.939 L71.465,100.674 L72.698,97.768 L92.091,97.314 L75.82,90.409 L78.412,84.308 z" fill="#FFF101"/>
    <path d="M201.927,175.771 C200.336,178.801 198.708,183.914 200.05,191.02 C202.571,182.719 207.72,179.105 211.205,177.563 L216.84,178.653 C216.367,184.979 219.906,191.182 226.073,193.798 C233.808,197.083 242.741,193.474 246.029,185.736 C249.311,177.998 245.7,169.064 237.967,165.779 C231.867,163.191 225.035,164.884 220.801,169.5 L216.917,166.835 C215.417,163.637 213.447,156.753 218.272,148.087 C211.637,152.448 209.217,157.719 208.332,160.944 L185.369,145.187 L183.788,148.917 L175.653,145.461 L182.227,152.595 L181.161,155.101 L190.846,162.444 L178.86,160.524 L177.867,162.862 L168.17,163.087 L176.305,166.54 L174.628,170.495 z" fill="#F4C5BA"/>
    <path d="M213.051,135.877 C213.353,139.278 214.678,144.098 218.989,149.115 C216.632,138.996 220.904,132.813 223.171,130.365 L226.699,128.444 C229.015,135.052 235.68,139.398 242.915,138.51 C251.258,137.484 257.191,129.892 256.166,121.55 C255.145,113.207 247.55,107.274 239.205,108.298 C232.22,109.156 226.926,114.621 225.989,121.274 L222.698,120.49 C220.397,119.193 213.486,114.343 213.307,102.821 C210.167,109.067 210.207,114.294 210.842,117.662 L191.818,113.128 L192.629,119.708 L175.084,121.86 L193.602,127.641 L193.987,130.775 L177.418,140.864 L194.959,138.71 L195.77,145.29 z" fill="#FFEB63"/>
    <path d="M47.01,124.788 C46.872,121.369 45.723,116.126 41.012,110.643 C42.981,119.092 40.327,124.796 38.079,127.874 L32.652,129.749 C29.9,124.034 23.73,120.433 17.086,121.248 C8.743,122.272 2.812,129.867 3.834,138.209 C4.86,146.553 12.454,152.485 20.795,151.461 C27.368,150.653 32.441,145.77 33.798,139.655 L38.498,140.022 C41.395,142.041 46.54,147.017 46.697,156.937 C50.262,149.841 49.722,144.066 48.877,140.832 L76.637,142.996 L76.147,138.976 L84.919,137.898 L75.66,135.008 L75.326,132.307 L63.268,130.788 L74.606,126.458 L74.299,123.938 L82.583,118.895 L73.815,119.972 L73.29,115.708 z" fill="#D8232A"/>
    <path d="M58.912,165.823 C56.953,163.028 53.395,159.517 47.152,157.33 C54.251,164.912 53.644,172.404 52.901,175.658 L50.808,179.085 C45.5,174.519 37.554,174.089 31.732,178.476 C25.019,183.535 23.681,193.077 28.737,199.789 C33.795,206.502 43.338,207.844 50.051,202.787 C55.673,198.55 57.524,191.171 55.008,184.939 L58.251,183.974 C60.891,183.947 69.304,184.691 75.218,194.578 C74.814,187.596 72.168,183.094 69.934,180.492 L88.675,174.91 L84.685,169.617 L98.803,158.98 L79.875,163.232 L77.974,160.712 L87.276,143.689 L73.161,154.324 L69.176,149.031 z" fill="#522B79"/>
    <path d="M202.187,93.596 C204.016,96.488 207.632,100.454 214.454,102.846 C208.523,96.514 207.97,90.247 208.377,86.457 L212.14,82.121 C217.383,85.695 224.524,85.73 229.87,81.7 C236.583,76.64 237.925,67.098 232.868,60.387 C227.809,53.673 218.265,52.332 211.552,57.389 C206.264,61.375 204.315,68.14 206.194,74.116 L201.941,76.145 C198.424,75.846 191.476,74.113 186.385,65.598 C186.845,73.525 190.196,78.258 192.547,80.636 L167.423,92.642 L169.859,95.877 L162.802,101.197 L172.263,99.069 L173.904,101.243 L185.105,96.53 L177.452,105.95 L178.98,107.976 L174.327,116.486 L181.38,111.17 L183.968,114.601 z" fill="#66B762"/>
    <path d="M173.201,63.885 C176.296,65.325 181.135,66.586 187.634,65.359 C177.693,62.342 174.475,55.551 173.487,52.362 L173.587,48.347 C180.467,49.649 187.566,46.045 190.414,39.337 C193.697,31.599 190.087,22.664 182.35,19.381 C174.611,16.097 165.678,19.707 162.392,27.443 C159.645,33.923 161.73,41.24 167.026,45.376 L164.699,47.835 C162.427,49.178 154.768,52.741 144.701,47.135 C148.54,52.977 153.089,55.553 156.322,56.691 L142.884,70.896 L148.984,73.485 L142.079,89.755 L156.344,76.611 L159.251,77.843 L159.701,97.237 L166.61,80.967 L172.711,83.556 z" fill="#A7C343"/>
    <path d="M88.038,195.618 C85.009,194.028 79.896,192.4 72.793,193.741 C81.093,196.261 84.705,201.41 86.245,204.896 L85.158,210.531 C78.83,210.057 72.631,213.599 70.012,219.763 C66.728,227.5 70.338,236.434 78.076,239.719 C85.813,243.004 94.747,239.392 98.031,231.656 C100.619,225.562 98.926,218.726 94.309,214.492 L96.976,210.607 C100.172,209.109 107.059,207.138 115.726,211.966 C111.361,205.328 106.093,202.907 102.868,202.023 L118.624,179.061 L114.895,177.478 L118.35,169.344 L111.215,175.918 L108.71,174.853 L101.364,184.536 L103.287,172.551 L100.95,171.559 L100.724,161.863 L97.27,169.997 L93.315,168.319 z" fill="#009949"/>
    <path d="M145.494,112.881 C145.685,113.073 145.916,113.342 145.916,113.496 C145.916,113.765 145.802,114.111 145.303,114.111 C145.189,114.111 145.112,114.111 144.542,113.957 C142.558,115.534 138.969,117.841 135.649,119.302 L135.649,120.15 C135.649,120.996 135.84,121.301 136.715,121.301 L140.037,121.301 C141.106,121.301 141.64,120.766 142.174,117.341 C143.357,118.264 145.303,119.458 147.213,119.92 C146.832,122.534 146.412,124.226 145.611,125.11 C144.922,125.879 143.701,126.61 141.907,126.61 L134.922,126.61 C130.04,126.61 129.62,123.226 129.62,122.227 L129.62,108.767 L135.723,109.19 C136.336,109.228 136.601,109.382 136.601,109.766 C136.601,110.228 136.26,110.382 135.649,110.574 L135.649,113.112 C136.641,112.576 139.312,110.882 141.261,108.882 z M145.38,96.345 C145.535,96.499 145.611,96.653 145.611,96.845 C145.611,97.191 145.344,97.383 145.112,97.383 C145,97.383 144.542,97.229 144.428,97.229 C141.755,98.806 139.427,100.152 135.609,101.613 C135.649,102.651 135.649,103.153 136.601,103.153 L140.305,103.153 C141.07,103.153 141.64,103.038 142.251,99.536 C143.281,100.305 145,101.42 147.328,102.036 C146.603,105.268 145.916,108.188 142.06,108.188 L134.047,108.188 C133.207,108.188 129.62,107.959 129.62,103.961 L129.62,92.039 L135.84,92.346 C136.145,92.346 136.641,92.5 136.641,92.923 C136.641,93.269 136.26,93.423 135.649,93.654 L135.649,95.922 C136.794,95.384 139.427,93.961 141.411,92.192 z M122.254,114.419 L118.362,114.419 L118.362,116.226 L122.254,116.226 z M122.254,116.226 M122.254,108.805 L118.362,108.805 L118.362,110.497 L122.254,110.497 z M122.254,110.497 M124.161,104.499 C123.971,103.768 123.701,102.997 123.475,102.266 C121.872,102.574 114.658,103.535 113.208,103.768 C113.055,104.23 113.017,104.307 112.903,104.499 z M125.611,94.576 C127.214,96.806 128.817,100.613 129.544,102.382 C127.786,103.074 125.84,103.997 124.925,104.499 L127.977,104.499 L127.977,122.573 C127.977,126.725 126.26,127.456 120.842,127.264 C120.727,126.341 120.46,124.303 119.237,121.917 C119.888,121.994 120.727,122.15 121.259,122.15 C122.063,122.15 122.254,121.994 122.254,121.265 L122.254,120.15 L118.362,120.15 L118.362,127.264 L112.597,127.264 L112.597,104.727 C112.101,104.881 111.987,104.499 111.872,104.037 L110.689,98.652 C111.455,98.652 112.027,98.652 113.515,98.575 C114.391,96.307 115.233,93.884 115.767,91.616 L121.948,92.769 C122.406,92.846 122.559,93.115 122.559,93.307 C122.559,93.769 122.139,93.923 121.335,94.076 C120.384,96.191 120.002,96.922 119.392,98.075 C119.964,98.037 120.46,97.96 121.681,97.806 C121.335,97.114 121.259,96.922 120.956,96.46 z" fill="#4F3731"/>
    <path d="M126.259,156.995 C126.564,157.61 126.832,158.225 127.444,159.956 L131.146,159.956 C131.642,158.994 132.062,157.841 132.329,156.995 z M132.405,139.767 C130.955,137.881 130.039,136.343 129.123,134.42 C128.053,136.881 127.139,138.227 126.03,139.767 z M122.827,152.535 L135.269,152.535 L135.269,150.305 L122.827,150.305 z M122.827,150.302 M138.739,145.996 C137.902,145.342 136.869,144.496 136.299,143.996 L136.299,144.612 L122.291,144.612 L122.291,143.843 C121.909,144.227 121.413,144.727 119.925,145.996 z M116.72,135.92 C117.903,136.804 118.818,137.65 119.656,138.498 C121.032,136.881 121.184,136.458 121.413,135.92 z M116.567,156.995 L116.567,148.649 C115.041,149.687 114.583,149.918 113.896,150.302 C112.215,147.572 111.146,146.496 110.04,145.573 C111.683,144.765 113.286,143.766 115.232,142.305 C114.926,141.997 113.515,140.421 111.874,139.152 L115.499,135.92 L113.207,135.92 L113.207,130.921 L127.483,130.921 L128.36,131.805 L133.435,129.883 C133.817,130.729 134.084,131.421 134.923,132.882 C136.183,131.613 137.022,130.421 137.365,129.96 L141.715,132.574 C142.135,132.844 142.25,132.959 142.25,133.19 C142.25,133.843 141.525,133.766 140.993,133.728 C140.115,134.766 139.044,136.035 138.014,137.073 C138.513,137.611 138.703,137.842 138.968,138.073 C140.533,136.496 141.794,134.881 142.557,133.843 L146.564,136.535 C146.869,136.727 147.136,136.919 147.136,137.268 C147.136,137.957 146.335,137.919 146.03,137.881 C145.381,138.65 144.274,139.959 142.708,141.42 C145.111,143.227 146.831,144.073 147.976,144.612 C146.449,145.957 145.534,147.226 144.16,149.687 C142.634,148.687 142.326,148.418 141.525,147.803 L141.525,156.995 L138.894,156.995 C139.199,157.072 139.579,157.187 139.579,157.572 C139.579,157.995 139.314,158.072 138.513,158.225 C138.281,158.841 137.976,159.533 137.785,159.956 L146.564,159.956 L146.564,165.262 L111.528,165.262 L111.528,159.956 L120.688,159.956 C120.614,159.802 120.116,158.264 119.696,157.456 L122.026,156.995 z" fill="#4F3731"/>
  </g>
</svg>
